# AST/ASF file generated using VICON BodyLanguage
# -----------------------------------------------
:version 1.10
:name VICON
:units
  mass 1.0
  length 0.45
  angle deg
:documentation
   .ast/.asf automatically generated from VICON data using
   VICON BodyBuilder and BodyLanguage model FoxedUp or BRILLIANT.MOD
:root
   order TX TY TZ RX RY RZ
   axis XYZ
   position 0 0 0  
   orientation 0 0 0 
:bonedata
  begin
     id 1 
     name lhipjoint
     direction 0.573633 -0.743009 0.344793 
     length 2.46257 
     axis 0 0 0  XYZ
  end
  begin
     id 2 
     name lfemur
     direction 0.34202 -0.939693 0  
     length 7.3842  
     axis 0 0 20  XYZ
    dof rx ry rz
    limits (-160.0 20.0)
           (-70.0 70.0)
           (-60.0 70.0)
  end
  begin
     id 3 
     name ltibia
     direction 0.34202 -0.939693 0   
     length 7.50407   
     axis 0 0 20   XYZ
    dof rx
    limits (-10.0 170.0)
  end
  begin
     id 4 
     name lfoot
     direction 0.110749 -0.304281 0.946123   
     length 1.95925   
     axis -90 7.62852e-016 20   XYZ
    dof rx rz
    limits (-45.0 90.0)
           (-70.0 20.0)
  end
  begin
     id 5 
     name ltoes
     direction 1.53554e-011 -4.21843e-011 1   
     length 0.978318   
     axis -90 7.62852e-016 20   XYZ
    dof rx
    limits (-90.0 20.0)
  end
  begin
     id 6 
     name rhipjoint
     direction -0.488109 -0.791693 0.367385   
     length 2.31113  
     axis 0 0 0  XYZ 
  end
  begin
     id 7 
     name rfemur
     direction -0.34202 -0.939693 0   
     length 7.40965   
     axis 0 0 -20   XYZ
    dof rx ry rz
    limits (-160.0 20.0)
           (-70.0 70.0)
           (-70.0 60.0)
  end
  begin
     id 8 
     name rtibia
     direction -0.34202 -0.939693 0   
     length 7.55548   
     axis 0 0 -20   XYZ
    dof rx
    limits (-10.0 170.0)
 end
 begin
     id 9 
     name rfoot
     direction -0.127594 -0.350561 0.927808   
     length 2.07199  
     axis -90 -7.62852e-016 -20   XYZ
    dof rx rz
    limits (-45.0 90.0)
           (-20.0 70.0)
  end
  begin
     id 10 
     name rtoes
     direction -1.53542e-011 -4.21909e-011 1   
     length 1.02667   
     axis -90 -7.62852e-016 -20   XYZ
    dof rx
    limits (-90.0 20.0)
  end
  begin
     id 11 
     name lowerback
     direction -0.0103342 0.997298 -0.0727278   
     length 2.02836   
     axis 0 0 0   XYZ
    dof rx ry rz
    limits (-20.0 45.0)
           (-30.0 30.0)
           (-30.0 30.0)
  end
  begin
     id 12 
     name upperback
     direction 0.0171146 0.999786 -0.011606   
     length 2.03179   
     axis 0 0 0   XYZ
    dof rx ry rz
    limits (-20.0 45.0)
           (-30.0 30.0)
           (-30.0 30.0)
  end
  begin
     id 13 
     name thorax
     direction 0.0216927 0.999513 0.0224343   
     length 2.03882   
     axis 0 0 0   XYZ
    dof rx ry rz
    limits (-20.0 45.0)
           (-30.0 30.0)
           (-30.0 30.0)
  end
  begin
     id 14 
     name lowerneck
     direction 0.000989287 0.993907 0.110221   
     length 1.75428   
     axis 0 0 0   XYZ
    dof rx ry rz
    limits (-20.0 45.0)
           (-30.0 30.0)
           (-30.0 30.0)
  end
  begin
     id 15 
     name upperneck
     direction -0.0172474 0.994813 -0.100253   
     length 1.77058   
     axis 0 0 0   XYZ
    dof rx ry rz
    limits (-20.0 45.0)
           (-30.0 30.0)
           (-30.0 30.0)
  end
  begin
     id 16
     name head
     direction -0.00486455 0.99894 -0.0457663  
     length 1.77427  
     axis 0 0 0   XYZ
    dof rx ry rz
    limits (-20.0 45.0)
           (-30.0 30.0)
           (-30.0 30.0)
  end
  begin
     id 17 
     name lclavicle
     direction 0.927314 0.333734 -0.169441  
     length 3.97584  
     axis 0 0 0   XYZ
    dof ry rz
    limits (-20.0 10.0)
           (0.0 20.0)
  end
  begin
     id 18 
     name lhumerus
     direction 1 -4.48965e-011 -3.25313e-028   
     length 4.76468   
     axis 180 -30 -90   XYZ
    dof rx ry rz
    limits (-60.0 90.0)
           (-90.0 90.0)
           (-90.0 90.0)
  end
  begin
     id 19
     name lradius
     direction 1 -4.48969e-011 -2.8465e-028   
     length 3.52712   
     axis -180 -30 -90   XYZ
    dof rx
    limits (-10.0 170.0)
  end
  begin
     id 20
     name lwrist
     direction 1 -4.4896e-011 -7.78665e-028   
     length 1.76356   
     axis 1.91374e-015 90 90   XYZ
    dof ry
    limits (-180.0 0.0)
 end
  begin
     id 21 
     name lhand
     direction 1 -4.48959e-011 -1.55733e-027   
     length 0.859564   
     axis 9.9371e-016 90 90   XYZ
    dof rx rz
    limits (-90.0 90.0)
           (-45.0 45.0)
  end
  begin
     id 22 
     name lfingers
     direction 1 -4.48965e-011 -3.11466e-027   
     length 0.693002   
     axis 1.98742e-015 90 90   XYZ
    dof rx
    limits (0.0 90.0)
  end
  begin
     id 23
     name lthumb
     direction 0.707107 -6.34948e-011 0.707107   
     length 0.995017   
     axis -90 45 2.85299e-015   XYZ
    dof rx rz
    limits (-45.0 45.0)
           (-45.0 45.0)
  end
  begin
     id 24 
     name rclavicle
     direction -0.899388 0.348209 -0.264294   
     length 3.68366  
     axis 0 0 0   XYZ 
    dof ry rz
    limits (-10.0 20.0)
           (-20.0 0.0)
  end
  begin
     id 25 
     name rhumerus
     direction -1 -4.48965e-011 -3.01536e-027  
     length 4.90577   
     axis 180 30 90   XYZ
    dof rx ry rz
    limits (-90.0 60.0)
           (-90.0 90.0)
           (-90.0 90.0)
  end
  begin
     id 26 
     name rradius
     direction -1 -4.48966e-011 3.93291e-027   
     length 3.42692   
     axis -180 30 90   XYZ
    dof rx
    limits (-10.0 170.0)
  end
  begin
     id 27 
     name rwrist
     direction -1 -4.48969e-011 -7.78665e-028   
     length 1.71346   
     axis 1.91374e-015 -90 -90   XYZ
    dof ry
    limits (-180.0 0.0)
  end
  begin
     id 28
     name rhand
     direction -1 -4.48967e-011 -1.55733e-027   
     length 0.740957   
     axis 9.9371e-016 -90 -90   XYZ
    dof rx rz
    limits (-90.0 90.0)
           (-45.0 45.0)
  end
  begin
     id 29
     name rfingers
     direction -1 -4.48949e-011 -3.11466e-027   
     length 0.597378   
     axis 1.98742e-015 -90 -90   XYZ
    dof rx
    limits (0.0 90.0)
  end
  begin
     id 30
     name rthumb
     direction -0.707107 -6.34931e-011 0.707107   
     length 0.857719   
     axis -90 -45 -2.85299e-015   XYZ
    dof rx rz
    limits (-45.0 45.0)
           (-45.0 45.0)
  end
:hierarchy
  begin
    root lhipjoint rhipjoint lowerback
    lhipjoint lfemur
    lfemur ltibia
    ltibia lfoot
    lfoot ltoes
    rhipjoint rfemur
    rfemur rtibia
    rtibia rfoot
    rfoot rtoes
    lowerback upperback
    upperback thorax
    thorax lowerneck lclavicle rclavicle
    lowerneck upperneck
    upperneck head
    lclavicle lhumerus
    lhumerus lradius
    lradius lwrist
    lwrist lhand lthumb
    lhand lfingers
    rclavicle rhumerus
    rhumerus rradius
    rradius rwrist
    rwrist rhand rthumb
    rhand rfingers
  end

#!OML:ASF E:\I on waltz\AllaLogoMonkeySwing\Project 1\Capture day 1\Session 1\Subject1.ASF
:FULLY-SPECIFIED
:DEGREES
35
root 0.51013 17.9577 -3.26263 2.78549 0.976858 -0.746299
lowerback 2.57399 -1.85357 -5.26884
upperback -1.32974 -2.62739 1.79043
thorax -2.49793 -1.20642 4.92824
lowerneck -0.982179 -9.63939 -10.9306
upperneck 13.401 -12.6071 1.23108
head 4.99366 -6.66054 1.44718
rclavicle -1.3887e-014 2.36554e-014
rhumerus -36.8936 -18.5554 -84.3701
rradius 21.5244
rwrist 4.30886
rhand 6.28711 -34.6449
rfingers 7.12502
rthumb 31.5969 -61.9309
lclavicle -1.3887e-014 2.36554e-014
lhumerus -45.9512 25.7004 79.8761
lradius 34.1158
lwrist -0.0157747
lhand -4.08665 4.27829
lfingers 7.12502
lthumb 21.6708 33.0855
rfemur -0.0585654 -0.581327 18.9812
rtibia 13.9624
rfoot -13.4071 -11.6289
rtoes 10.8668
lfemur 3.66333 0.226667 -17.1443
ltibia 7.52995
lfoot -12.9111 2.92578
ltoes -29.757
36
root 0.505188 17.957 -3.2587 2.73428 0.945532 -0.748888
lowerback 2.58378 -1.79136 -5.29263
upperback -1.3395 -2.54623 1.7745
thorax -2.52333 -1.16448 4.92287
lowerneck -0.925108 -9.69633 -10.9429
upperneck 13.2471 -12.7017 1.3287
head 4.94885 -6.69964 1.47855
rclavicle 8.83582e-015 -1.36664e-014
rhumerus -37.1108 -19.1732 -84.074
rradius 21.7885
rwrist 5.88557
rhand 4.2162 -34.4103
rfingers 7.12502
rthumb 29.6221 -62.0653
lclavicle 8.83582e-015 -1.36664e-014
lhumerus -45.9398 26.6767 78.6641
lradius 34.0109
lwrist -0.935288
lhand -4.5888 3.79017
lfingers 7.12502
lthumb 21.1885 32.6522
rfemur 0.0233355 -0.488957 19.0192
rtibia 13.9284
rfoot -13.4306 -11.6825
rtoes 11.2371
lfemur 3.77307 0.212394 -17.1246
ltibia 7.47144
lfoot -12.8817 2.97198
ltoes -29.4429
37
root 0.503795 17.9566 -3.25394 2.69046 0.949528 -0.853115
lowerback 2.54893 -1.77731 -5.223
upperback -1.32632 -2.52194 1.81337
thorax -2.49408 -1.15452 4.92139
lowerneck -1.05852 -9.74227 -11.0252
upperneck 13.2721 -12.7612 1.46231
head 4.99633 -6.72507 1.51797
rclavicle -4.42218e-015 1.56046e-014
rhumerus -37.2857 -20.7219 -82.6568
rradius 22.0789
rwrist 9.00632
rhand 7.41207 -34.9321
rfingers 7.12502
rthumb 32.6678 -62.0019
lclavicle -4.42218e-015 1.56046e-014
lhumerus -45.9631 27.733 77.4686
lradius 33.9967
lwrist -1.52645
lhand -4.92394 3.26845
lfingers 7.12502
lthumb 20.8665 32.1663
rfemur 0.0798101 -0.503265 19.1547
rtibia 13.9448
rfoot -13.4571 -11.702
rtoes 11.4174
lfemur 3.85172 0.242965 -16.9822
ltibia 7.42865
lfoot -12.8384 2.98136
ltoes -29.6364
38
root 0.505126 17.9558 -3.24796 2.67179 0.981854 -0.951782
lowerback 2.4535 -1.80862 -5.17971
upperback -1.2941 -2.55535 1.88042
thorax -2.40158 -1.17526 4.96322
lowerneck -1.32902 -9.74119 -11.085
upperneck 13.3835 -12.7372 1.55122
head 5.08391 -6.71123 1.53729
rclavicle -4.63184e-015 9.83984e-015
rhumerus -37.0005 -20.6974 -82.1907
rradius 22.0344
rwrist 8.27599
rhand 7.6279 -35.0626
rfingers 7.12502
rthumb 32.8732 -62.0895
lclavicle -4.63184e-015 9.83984e-015
lhumerus -46.0249 28.5667 76.5409
lradius 34.1963
lwrist -1.71151
lhand -5.44649 2.92804
lfingers 7.12502
lthumb 20.3644 31.8803
rfemur 0.133794 -0.529797 19.2665
rtibia 13.9165
rfoot -13.4618 -11.7085
rtoes 11.3483
lfemur 3.87763 0.205084 -16.8616
ltibia 7.44703
lfoot -12.8274 2.9544
ltoes -29.9435
39
root 0.507058 17.9561 -3.24143 2.665 0.975497 -1.01113
lowerback 2.3791 -1.8178 -5.15605
upperback -1.28792 -2.56185 1.93263
thorax -2.35112 -1.18034 5.00127
lowerneck -1.49118 -9.69205 -11.2197
upperneck 13.3847 -12.6743 1.78509
head 5.13061 -6.673 1.623
rclavicle -2.43573e-014 2.88238e-015
rhumerus -36.6054 -20.5511 -81.6824
rradius 21.9087
rwrist 7.00831
rhand 8.06111 -35.3941
rfingers 7.12502
rthumb 33.2851 -62.3337
lclavicle -2.43573e-014 2.88238e-015
lhumerus -46.1276 29.1276 75.8314
lradius 34.5633
lwrist -1.5805
lhand -5.95027 2.76437
lfingers 7.12502
lthumb 19.8802 31.7676
rfemur 0.173421 -0.536595 19.32
rtibia 13.8867
rfoot -13.4704 -11.6777
rtoes 11.1811
lfemur 3.89864 0.169447 -16.7877
ltibia 7.49202
lfoot -12.8469 2.93153
ltoes -29.9126
40
root 0.509728 17.9577 -3.23523 2.6773 0.882849 -1.00739
lowerback 2.31336 -1.803 -5.16248
upperback -1.31663 -2.53902 1.95482
thorax -2.34544 -1.16819 5.0254
lowerneck -1.51109 -9.65339 -11.4821
upperneck 13.2718 -12.6541 2.17637
head 5.13922 -6.6525 1.78197
rclavicle -9.42829e-015 6.85807e-015
rhumerus -36.3277 -20.931 -80.7838
rradius 21.7315
rwrist 6.38111
rhand 8.51336 -35.7812
rfingers 7.12502
rthumb 33.715 -62.6278
lclavicle -9.42829e-015 6.85807e-015
lhumerus -46.2743 29.5731 75.1641
lradius 34.9571
lwrist -1.36804
lhand -6.16949 2.70883
lfingers 7.12502
lthumb 19.6694 31.7337
rfemur 0.171202 -0.516907 19.2872
rtibia 13.8884
rfoot -13.4811 -11.5986
rtoes 11.0197
lfemur 3.9318 0.200981 -16.7958
ltibia 7.4813
lfoot -12.8533 3.00234
ltoes -29.7625
